PathFileType  4	(X/Y/Z) D:\Research_projects\MuscleProsody\BulkSports2Dtrack\RetrackedSports2D\p1_sample60_cam2\p1_sample60_cam2_Sports2D\pose-3d
DataRate	CameraRate	NumFrames	NumMarkers	Units	OrigDataRate	OrigDataStartFrame	OrigNumFrames
60.0	60.0	10	22	m	60.0	487	780
Frame#	Time	Hip			RHip			RKnee			RAnkle			RBigToe			RSmallToe			RHeel			LHip			LKnee			LAnkle			LBigToe			LSmallToe			LHeel			Neck			Head			Nose			RShoulder			RElbow			RWrist			LShoulder			LElbow			LWrist			
		X1	Y1	Z1	X2	Y2	Z2	X3	Y3	Z3	X4	Y4	Z4	X5	Y5	Z5	X6	Y6	Z6	X7	Y7	Z7	X8	Y8	Z8	X9	Y9	Z9	X10	Y10	Z10	X11	Y11	Z11	X12	Y12	Z12	X13	Y13	Z13	X14	Y14	Z14	X15	Y15	Z15	X16	Y16	Z16	X17	Y17	Z17	X18	Y18	Z18	X19	Y19	Z19	X20	Y20	Z20	X21	Y21	Z21	X22	Y22	Z22	

488	8.1166667	0.8505110	0.8669286	0.0301000	0.7528484	0.8821196	0.0301000	0.7441037	0.4615530	0.1290000	0.7553942	0.1080322	0.0230000	0.7560139	-0.0109187	0.2179000	0.7058251	0.0162423	0.1804000	0.7784100	0.0916808	-0.0119000	0.9474865	0.8712381	0.0301000	0.9223125	0.4529743	0.1290000	0.9276857	0.1058969	0.0230000	0.9084318	-0.0150231	0.2179000	0.9628914	0.0027799	0.1804000	0.9181491	0.0997637	-0.0119000	0.8760474	1.5021344	0.0008000	0.8621576	1.7969118	0.0655000	0.8174438	1.6223710	0.1076000	0.7094594	1.4054458	-0.0127500	0.5454193	1.1638623	0.0702000	0.6233365	1.3087377	0.1076000	1.0528751	1.4047684	-0.0127500	1.1792709	1.1333264	0.0702000	1.0290662	1.2086076	0.1076000
489	8.1333333	0.8505090	0.8671323	0.0301000	0.7528102	0.8813873	0.0301000	0.7441348	0.4606291	0.1290000	0.7553429	0.1091903	0.0230000	0.7558475	-0.0110654	0.2179000	0.7062872	0.0158923	0.1804000	0.7782966	0.0922185	-0.0119000	0.9474107	0.8706615	0.0301000	0.9220345	0.4523487	0.1290000	0.9274295	0.1063994	0.0230000	0.9083709	-0.0153715	0.2179000	0.9625364	0.0022501	0.1804000	0.9183654	0.0993861	-0.0119000	0.8759249	1.5016574	0.0008000	0.8607518	1.7958476	0.0655000	0.8171446	1.6215830	0.1076000	0.7095610	1.4046568	-0.0127500	0.5582541	1.1551222	0.0702000	0.6023492	1.3083131	0.1076000	1.0523986	1.4041472	-0.0127500	1.1689723	1.1276405	0.0702000	1.0483344	1.2081081	0.1076000
490	8.1500000	0.8505139	0.8670622	0.0301000	0.7528637	0.8799008	0.0301000	0.7442721	0.4593441	0.1290000	0.7553700	0.1103754	0.0230000	0.7555267	-0.0111933	0.2179000	0.7066861	0.0154927	0.1804000	0.7780379	0.0926223	-0.0119000	0.9471778	0.8694269	0.0301000	0.9217675	0.4513347	0.1290000	0.9270728	0.1069985	0.0230000	0.9083937	-0.0154848	0.2179000	0.9621521	0.0016799	0.1804000	0.9185718	0.0988517	-0.0119000	0.8757920	1.5012788	0.0008000	0.8595699	1.7945192	0.0655000	0.8170067	1.6209311	0.1076000	0.7092035	1.4036415	-0.0127500	0.5704753	1.1474096	0.0702000	0.5790434	1.3006774	0.1076000	1.0521694	1.4033892	-0.0127500	1.1583730	1.1227292	0.0702000	1.0693037	1.2018451	0.1076000
491	8.1666667	0.8505209	0.8667472	0.0301000	0.7529801	0.8777657	0.0301000	0.7444962	0.4577596	0.1290000	0.7554837	0.1115792	0.0230000	0.7551099	-0.0112676	0.2179000	0.7070134	0.0150783	0.1804000	0.7777031	0.0928956	-0.0119000	0.9467975	0.8676404	0.0301000	0.9215337	0.4500115	0.1290000	0.9266529	0.1077234	0.0230000	0.9084811	-0.0153244	0.2179000	0.9617739	0.0011170	0.1804000	0.9187815	0.0982102	-0.0119000	0.8756770	1.5009677	0.0008000	0.8586369	1.7929976	0.0655000	0.8170148	1.6203857	0.1076000	0.7084620	1.4024585	-0.0127500	0.5814847	1.1410786	0.0702000	0.5546481	1.2864765	0.1076000	1.0521786	1.4025577	-0.0127500	1.1480340	1.1189713	0.0702000	1.0910326	1.1901159	0.1076000
492	8.1833333	0.8505302	0.8662459	0.0301000	0.7531340	0.8751648	0.0301000	0.7447815	0.4559730	0.1290000	0.7556843	0.1127816	0.0230000	0.7546589	-0.0112606	0.2179000	0.7072545	0.0146848	0.1804000	0.7773779	0.0930423	-0.0119000	0.9462939	0.8654689	0.0301000	0.9213511	0.4484967	0.1290000	0.9262111	0.1085908	0.0230000	0.9085953	-0.0148868	0.2179000	0.9614355	0.0006116	0.1804000	0.9190031	0.0975149	-0.0119000	0.8755971	1.5006893	0.0008000	0.8579499	1.7913735	0.0655000	0.8171543	1.6199155	0.1076000	0.7074462	1.4011769	-0.0127500	0.5908009	1.1363410	0.0702000	0.5303705	1.2668555	0.1076000	1.0523887	1.4017263	-0.0127500	1.1385372	1.1166297	0.0702000	1.1125236	1.1737295	0.1076000
493	8.2000000	0.8505478	0.8656347	0.0301000	0.7533120	0.8723252	0.0301000	0.7450977	0.4541017	0.1290000	0.7559604	0.1139557	0.0230000	0.7542171	-0.0111654	0.2179000	0.7073973	0.0143431	0.1804000	0.7771342	0.0930714	-0.0119000	0.9457082	0.8631091	0.0301000	0.9212246	0.4469201	0.1290000	0.9257846	0.1095991	0.0230000	0.9086991	-0.0142065	0.2179000	0.9611597	0.0002124	0.1804000	0.9192390	0.0968317	-0.0119000	0.8755488	1.5004222	0.0008000	0.8574795	1.7897389	0.0655000	0.8174107	1.6194971	0.1076000	0.7062646	1.3998673	-0.0127500	0.5981228	1.1332494	0.0702000	0.5072861	1.2433614	0.1076000	1.0527359	1.4009643	-0.0127500	1.1303992	1.1158057	0.0702000	1.1328346	1.1539389	0.1076000
494	8.2166667	0.8505801	0.8650004	0.0301000	0.7535167	0.8694755	0.0301000	0.7454216	0.4522675	0.1290000	0.7562867	0.1150788	0.0230000	0.7538161	-0.0109897	0.2179000	0.7074492	0.0140779	0.1804000	0.7770025	0.0930147	-0.0119000	0.9450861	0.8607529	0.0301000	0.9211463	0.4454068	0.1290000	0.9254050	0.1107224	0.0230000	0.9087686	-0.0133432	0.2179000	0.9609513	-0.0000449	0.1804000	0.9194919	0.0962252	-0.0119000	0.8755161	1.5001688	0.0008000	0.8571816	1.7881810	0.0655000	0.8177705	1.6191226	0.1076000	0.7050003	1.3985904	-0.0127500	0.6033533	1.1317124	0.0702000	0.4862833	1.2177627	0.1076000	1.0531475	1.4003232	-0.0127500	1.1239770	1.1164244	0.0702000	1.1511873	1.1322477	0.1076000
495	8.2333333	0.8506309	0.8644253	0.0301000	0.7537607	0.8668035	0.0301000	0.7457455	0.4505748	0.1290000	0.7566311	0.1161366	0.0230000	0.7534889	-0.0107467	0.2179000	0.7074405	0.0139071	0.1804000	0.7769674	0.0929261	-0.0119000	0.9444631	0.8585567	0.0301000	0.9211050	0.4440637	0.1290000	0.9251006	0.1119108	0.0230000	0.9087945	-0.0123630	0.2179000	0.9608018	-0.0001484	0.1804000	0.9197665	0.0957385	-0.0119000	0.8754827	1.4999472	0.0008000	0.8570210	1.7867820	0.0655000	0.8182204	1.6187979	0.1076000	0.7037010	1.3973898	-0.0127500	0.6065924	1.1315278	0.0702000	0.4680350	1.1918203	0.1076000	1.0535608	1.3998294	-0.0127500	1.1193978	1.1182598	0.0702000	1.1670432	1.1102121	0.1076000
496	8.2500000	0.8507022	0.8639706	0.0301000	0.7540586	0.8644362	0.0301000	0.7460734	0.4491020	0.1290000	0.7569665	0.1171152	0.0230000	0.7532646	-0.0104539	0.2179000	0.7074112	0.0138390	0.1804000	0.7769860	0.0928575	-0.0119000	0.9438642	0.8566260	0.0301000	0.9210966	0.4429690	0.1290000	0.9248945	0.1130996	0.0230000	0.9087771	-0.0113222	0.2179000	0.9607065	-0.0001018	0.1804000	0.9200628	0.0953875	-0.0119000	0.8754384	1.4997750	0.0008000	0.8569840	1.7856145	0.0655000	0.8187437	1.6185350	0.1076000	0.7023909	1.3963026	-0.0127500	0.6080955	1.1324381	0.0702000	0.4530017	1.1671033	0.1076000	1.0539333	1.3994873	-0.0127500	1.1165500	1.1210023	0.0702000	1.1801012	1.0892944	0.1076000
497	8.2666667	0.8507936	0.8636685	0.0301000	0.7544184	0.8624392	0.0301000	0.7464078	0.4479086	0.1290000	0.7572765	0.1179918	0.0230000	0.7531536	-0.0101308	0.2179000	0.7073922	0.0138719	0.1804000	0.7770074	0.0928359	-0.0119000	0.9433130	0.8550188	0.0301000	0.9211272	0.4421724	0.1290000	0.9247981	0.1142199	0.0230000	0.9087213	-0.0102652	0.2179000	0.9606730	0.0000881	0.1804000	0.9203678	0.0951659	-0.0119000	0.8753821	1.4996643	0.0008000	0.8570792	1.7847307	0.0655000	0.8193216	1.6183446	0.1076000	0.7010895	1.3953699	-0.0127500	0.6081900	1.1341968	0.0702000	0.4414430	1.1448547	0.1076000	1.0542432	1.3992865	-0.0127500	1.1151497	1.1243408	0.0702000	1.1902624	1.0707209	0.1076000
